HIERARCHY
ROOT hip
{
  OFFSET 0 0 0
  CHANNELS 6 Xposition Yposition Zposition Zrotation Yrotation Xrotation
  JOINT abdomen
  {
    OFFSET 0 20.6881 -0.73152
    CHANNELS 3 Zrotation Xrotation Yrotation
    JOINT chest
    {
      OFFSET 0 11.7043 -0.48768
      CHANNELS 3 Zrotation Xrotation Yrotation
      JOINT neck
      {
        OFFSET 0 22.1894 -2.19456
        CHANNELS 3 Zrotation Xrotation Yrotation
        JOINT head
        {
          OFFSET -0.24384 7.07133 1.2192
          CHANNELS 3 Zrotation Xrotation Yrotation
          JOINT leftEye
          {
            OFFSET 4.14528 8.04674 8.04672
            CHANNELS 3 Zrotation Xrotation Yrotation
            End Site
            {
              OFFSET 1 0 0
            }
          }
          JOINT rightEye
          {
            OFFSET -3.6576 8.04674 8.04672
            CHANNELS 3 Zrotation Xrotation Yrotation
            End Site
            {
              OFFSET 1 0 0
            }
          }
        }
      }
      JOINT rCollar
      {
        OFFSET -2.68224 19.2634 -4.8768
        CHANNELS 3 Zrotation Xrotation Yrotation
        JOINT rShldr
        {
          OFFSET -8.77824 -1.95073 1.46304
          CHANNELS 3 Zrotation Xrotation Yrotation
          JOINT rForeArm
          {
            OFFSET -28.1742 -1.7115 0.48768
            CHANNELS 3 Zrotation Xrotation Yrotation
            JOINT rHand
            {
              OFFSET -22.5879 0.773209 7.07136
              CHANNELS 3 Zrotation Xrotation Yrotation
              JOINT rThumb1
              {
                OFFSET -1.2192 -0.487915 3.41376
                CHANNELS 3 Zrotation Xrotation Yrotation
                JOINT rThumb2
                {
                  OFFSET -3.37035 -0.52449 3.41376
                  CHANNELS 3 Zrotation Xrotation Yrotation
                  End Site
                  {
                    OFFSET -1.78271 -1.18214 1.43049
                  }
                }
              }
              JOINT rIndex1
              {
                OFFSET -7.75947 0.938293 5.60832
                CHANNELS 3 Zrotation Xrotation Yrotation
                JOINT rIndex2
                {
                  OFFSET -2.54057 -0.884171 1.56538
                  CHANNELS 3 Zrotation Xrotation Yrotation
                  End Site
                  {
                    OFFSET -1.62519 -0.234802 1.16502
                  }
                }
              }
              JOINT rMid1
              {
                OFFSET -8.24714 1.18213 3.41376
                CHANNELS 3 Zrotation Xrotation Yrotation
                JOINT rMid2
                {
                  OFFSET -3.10165 -0.590103 1.0647
                  CHANNELS 3 Zrotation Xrotation Yrotation
                  End Site
                  {
                    OFFSET -2.48547 -0.328903 0.83742
                  }
                }
              }
              JOINT rRing1
              {
                OFFSET -8.82822 0.546677 1.51678
                CHANNELS 3 Zrotation Xrotation Yrotation
                JOINT rRing2
                {
                  OFFSET -2.60934 -0.819778 -0.0198488
                  CHANNELS 3 Zrotation Xrotation Yrotation
                  End Site
                  {
                    OFFSET -2.33842 -0.294052 0.168128
                  }
                }
              }
              JOINT rPinky1
              {
                OFFSET -8.27202 -0.0477905 -0.4584
                CHANNELS 3 Zrotation Xrotation Yrotation
                JOINT rPinky2
                {
                  OFFSET -1.82734 -0.647385 -0.700984
                  CHANNELS 3 Zrotation Xrotation Yrotation
                  End Site
                  {
                    OFFSET -1.69225 -0.51767 -0.607171
                  }
                }
              }
            }
          }
        }
      }
      JOINT lCollar
      {
        OFFSET 2.68224 19.2634 -4.8768
        CHANNELS 3 Zrotation Xrotation Yrotation
        JOINT lShldr
        {
          OFFSET 8.77824 -1.95073 1.46304
          CHANNELS 3 Zrotation Xrotation Yrotation
          JOINT lForeArm
          {
            OFFSET 28.1742 -1.7115 0.48768
            CHANNELS 3 Zrotation Xrotation Yrotation
            JOINT lHand
            {
              OFFSET 22.5879 0.773209 7.07136
              CHANNELS 3 Zrotation Xrotation Yrotation
              JOINT lThumb1
              {
                OFFSET 1.2192 -0.487915 3.41376
                CHANNELS 3 Zrotation Xrotation Yrotation
                JOINT lThumb2
                {
                  OFFSET 3.37035 -0.52449 3.41376
                  CHANNELS 3 Zrotation Xrotation Yrotation
                  End Site
                  {
                    OFFSET 1.78271 -1.18214 1.43049
                  }
                }
              }
              JOINT lIndex1
              {
                OFFSET 7.75947 0.938293 5.60832
                CHANNELS 3 Zrotation Xrotation Yrotation
                JOINT lIndex2
                {
                  OFFSET 2.54057 -0.884171 1.56538
                  CHANNELS 3 Zrotation Xrotation Yrotation
                  End Site
                  {
                    OFFSET 1.62519 -0.234802 1.16502
                  }
                }
              }
              JOINT lMid1
              {
                OFFSET 8.24714 1.18213 3.41376
                CHANNELS 3 Zrotation Xrotation Yrotation
                JOINT lMid2
                {
                  OFFSET 3.10165 -0.590103 1.0647
                  CHANNELS 3 Zrotation Xrotation Yrotation
                  End Site
                  {
                    OFFSET 2.48547 -0.328903 0.83742
                  }
                }
              }
              JOINT lRing1
              {
                OFFSET 8.82822 0.546677 1.51678
                CHANNELS 3 Zrotation Xrotation Yrotation
                JOINT lRing2
                {
                  OFFSET 2.60934 -0.819778 -0.0198488
                  CHANNELS 3 Zrotation Xrotation Yrotation
                  End Site
                  {
                    OFFSET 2.33842 -0.294052 0.168128
                  }
                }
              }
              JOINT lPinky1
              {
                OFFSET 8.27202 -0.0477905 -0.4584
                CHANNELS 3 Zrotation Xrotation Yrotation
                JOINT lPinky2
                {
                  OFFSET 1.82734 -0.647385 -0.700984
                  CHANNELS 3 Zrotation Xrotation Yrotation
                  End Site
                  {
                    OFFSET 1.69225 -0.51767 -0.607171
                  }
                }
              }
            }
          }
        }
      }
    }
  }
  JOINT rButtock
  {
    OFFSET -8.77824 4.35084 1.2192
    CHANNELS 3 Zrotation Xrotation Yrotation
    JOINT rThigh
    {
      OFFSET 0 -1.70687 -2.19456
      CHANNELS 3 Zrotation Xrotation Yrotation
      JOINT rShin
      {
        OFFSET 0 -36.8199 0.73152
        CHANNELS 3 Zrotation Xrotation Yrotation
        JOINT rFoot
        {
          OFFSET 0.73152 -45.1104 -5.12064
          CHANNELS 3 Zrotation Xrotation Yrotation
          End Site
          {
            OFFSET -1.1221 -3.69964 12.103
          }
        }
      }
    }
  }
  JOINT lButtock
  {
    OFFSET 8.77824 4.35084 1.2192
    CHANNELS 3 Zrotation Xrotation Yrotation
    JOINT lThigh
    {
      OFFSET 0 -1.70687 -2.19456
      CHANNELS 3 Zrotation Xrotation Yrotation
      JOINT lShin
      {
        OFFSET 0 -36.8199 0.73152
        CHANNELS 3 Zrotation Xrotation Yrotation
        JOINT lFoot
        {
          OFFSET -0.73152 -45.1104 -5.12064
          CHANNELS 3 Zrotation Xrotation Yrotation
          End Site
          {
            OFFSET 1.1221 -3.69964 12.103
          }
        }
      }
    }
  }
}
MOTION
Frames:	4
Frame Time:	0.03333
0.036924928426742554 49.13825607299805 0.25825563073158264 -33.19432944059372 -17.254147678613663 -9.626073315739632 -1.992248296737671 11.227119415998459 3.4641141816973686 -2.5794146955013275 -4.398752376437187 -8.27454574406147 -3.2114920020103455 9.661751389503479 -9.007060378789902 -5.794487446546555 -15.529707223176956 -7.857946380972862 4.082505851984024 4.653485119342804 1.5337779745459557 -3.6348284035921097 -0.5068077519536018 -6.048503369092941 4.178978204727173 -9.152388498187065 7.410236075520515 33.94382983446121 29.228079915046692 15.60129001736641 -24.838795065879822 -18.324158638715744 46.144734621047974 -0.34579575061798096 1.4617613330483437 5.641932785511017 2.6121074706315994 -2.483547180891037 9.21917349100113 6.91662110388279 8.40196743607521 -2.945854067802429 -1.1991234496235847 6.077298894524574 1.495651714503765 7.296023592352867 8.716966733336449 6.901646330952644 -3.7844255939126015 6.682782098650932 0.9069681912660599 -1.540502943098545 6.045118421316147 -6.078941076993942 0.4642387479543686 1.6157881915569305 1.6139401495456696 9.815856367349625 2.915315441787243 -0.6785811111330986 0.4238290060311556 0.5023723840713501 -1.8737972527742386 -0.21102681756019592 -1.19827251881361 -0.08976917713880539 7.256803661584854 -8.64070013165474 1.7100416868925095 -37.491483092308044 22.291246354579926 -23.132647275924683 28.249974846839905 -23.59937310218811 -51.92266881465912 -12.151203453540802 -5.788800492882729 -3.4035153687000275 6.3781944662332535 -7.350818440318108 -5.330770052969456 -3.168717138469219 -5.4244257509708405 2.895544543862343 -1.6040454804897308 -0.7425722479820251 0.8900206536054611 1.261289343237877 11.35306790471077 1.2318725511431694 -3.1958460062742233 -4.306502155959606 -7.0234836637973785 -3.9177940785884857 -1.53941061347723 5.0236644968390465 2.437649555504322 -5.098976902663708 -1.048862412571907 -12.488196194171906 -4.403960220515728 -2.8224660828709602 -1.0169511660933495 2.560054510831833 -2.2344306483864784 -5.46427633613348 3.631618805229664 -0.8407330513000488 6.151780486106873 4.190476834774017 -0.2696143090724945 -26.358022391796112 -27.69350230693817 -36.54451847076416 -22.499597668647766 39.17867571115494 20.18758714199066 -1.1033769696950912 -6.329470127820969 -10.836709141731262 1.7495655454695225 3.1658709794282913 7.11494967341423 30.2559694647789 -26.777785420417786 20.712571889162064 21.195995807647705 48.29419791698456 -10.517981573939323 3.2451238855719566 -0.1528986543416977 16.626569777727127
0.10380885750055313 62.10323715209961 0.43773166835308075 -37.76918560266495 7.430919259786606 -14.13141131401062 -1.353992521762848 10.981815308332443 3.0006566271185875 -23.16519856452942 -7.619428262114525 -11.641347706317902 -1.609349548816681 14.03454601764679 -14.447030872106552 4.681502133607864 -27.376819252967834 -19.162395894527435 -0.193072110414505 -0.5227826535701752 -3.5212740674614906 -9.299873784184456 6.514592170715332 -17.281900495290756 4.3066540360450745 -7.881127372384071 -2.235153838992119 59.518818855285645 45.4562383890152 2.230355031788349 -37.348250448703766 -33.586605191230774 61.406203508377075 0.8764976263046265 -17.973976135253906 2.1943282708525658 -0.7127910107374191 -10.220120251178741 20.43371871113777 16.09083741903305 11.04831263422966 -13.111364543437958 1.877456121146679 10.059539750218391 -8.23330007493496 -5.278231278061867 8.908138498663902 6.000944450497627 -0.08999381214380264 13.31767737865448 -9.510860368609428 8.854918777942657 23.59349638223648 -2.0186854898929596 -10.255107656121254 -3.349243551492691 2.3160673677921295 16.44093409180641 11.594879776239395 -5.323544852435589 -9.811322093009949 9.003625810146332 -3.334265425801277 -12.115795612335205 -16.285269409418106 1.887710876762867 8.212932050228119 -20.294812470674515 -1.8809587508440018 -60.113298296928406 28.976180255413055 -10.544075444340706 41.49484097957611 -23.971803188323975 -61.79464101791382 -13.314968347549438 -9.117969051003456 6.722057014703751 13.434978425502777 -18.476872891187668 0.6713376799598336 -1.9410432502627373 -0.008945250883698463 9.820917025208473 -4.564147442579269 -13.756089806556702 -2.988646700978279 -7.205413207411766 15.700472742319107 14.206946343183517 -2.4713278748095036 -10.234262198209763 0.8915917575359344 -13.264208883047104 2.3393425717949867 14.053694307804108 10.641282051801682 7.258037477731705 1.1704777926206589 -9.431776106357574 3.4797172620892525 -21.43033504486084 -1.3490663096308708 -9.746062606573105 5.951761454343796 -13.368397951126099 14.339774698019028 2.5239962339401245 2.295040525496006 2.3966047167778015 0.6128270924091339 -26.991581618785858 -36.723327934741974 -30.04289209842682 -35.812066197395325 70.385981798172 29.266250431537628 -10.199297592043877 -2.1950675547122955 -31.551790237426758 3.1726274639368057 4.339020922780037 11.413709968328476 44.652463495731354 -38.41421663761139 41.82841122150421 42.816858887672424 56.55389964580536 -33.521642088890076 14.771756529808044 -8.833374604582787 11.000464707612991
0.1238576453179121 57.09628677368164 0.5120109245181084 -23.58340859413147 3.218708150088787 -4.583370164036751 2.147781550884247 5.18635556101799 0.8525411412119865 -17.22616419196129 -2.4378953129053116 -14.267833828926086 -4.735230803489685 12.243881821632385 -9.95669111609459 3.8969452679157257 -23.462896943092346 -15.595615804195404 -0.10019928216934204 1.3791744410991669 -2.7251622453331947 -5.093601420521736 1.821538768708706 -15.045758932828903 2.4597305059432983 -4.228082075715065 5.785917118191719 60.039414167404175 42.189530432224274 6.105889230966568 -31.449936032295227 -29.21890139579773 65.36799788475037 -6.285504698753357 -7.34414242208004 -3.3012444153428078 1.1512262374162674 -8.91285851597786 21.336072832345963 12.131754755973816 9.506645947694778 -10.100520551204681 -0.14782626181840897 10.020518973469734 -1.7842607572674751 0.16575699672102928 7.9983653873205185 9.283362105488777 -3.2427803054451942 13.345100283622742 -0.14150463044643402 -1.188868023455143 14.297665357589722 -8.796380907297134 -5.65617598593235 -4.248204678297043 0.011685043573379517 14.978285282850266 8.797142654657364 -6.176482290029526 -4.054347015917301 7.725885808467865 -3.621310070157051 -6.068803668022156 -10.072715431451797 0.01543242484331131 15.279262661933899 -15.063383728265762 -2.441459968686104 -60.718587040901184 31.962787806987762 -13.734337091445923 37.7665650844574 -29.997970461845398 -62.32497811317444 -4.351943135261536 -9.348279610276222 -0.6579391658306122 11.993264257907867 -16.13271877169609 -4.480198659002781 -6.212472170591354 2.759343981742859 8.327666893601418 -5.372903198003769 -10.937093496322632 -2.6469171792268753 -1.4681144803762436 11.600077897310257 11.15692064166069 -6.28407709300518 -6.5663789212703705 -5.253982096910477 -6.5540944039821625 4.409074522554874 11.935497522354126 6.626637428998947 2.2278257086873055 5.216359421610832 -11.769610941410065 -1.4948175475001335 -15.688554346561432 -2.1922066435217857 -6.628584712743759 6.058538854122162 -5.308606289327145 7.24205419421196 1.5591198205947876 5.958025753498077 5.200682580471039 8.925751894712448 -22.116815596818924 -36.25732362270355 -26.381993293762207 -28.169594407081604 70.95785021781921 19.670827388763428 -2.8564821928739548 -14.171618968248367 -18.903667330741882 0.5152987875044346 3.924684002995491 11.507050842046738 42.18211680650711 -33.87237310409546 41.019228994846344 32.13290423154831 61.66028916835785 -25.017937123775482 14.789206981658936 -15.97548633813858 7.175044566392899
0.13353555370122194 57.236087799072266 0.43497516214847565 -23.662410378456116 -4.605451114475727 1.672002598643303 -1.9449743628501892 4.116754978895187 3.3693933114409447 -11.514882892370224 -6.0000257939100266 -13.87237161397934 -2.8219950199127197 17.29049026966095 -9.336510747671127 1.6940845549106598 -26.42159879207611 -12.718769609928131 2.5985348224639893 4.43867102265358 -0.7692042365670204 -7.094808295369148 -0.21132487803697586 -13.7581966817379 5.633132457733154 -5.765337869524956 11.981690526008606 62.232420444488525 40.106701254844666 6.616978794336319 -30.605319142341614 -25.249521732330322 64.23541367053986 -6.5871861577034 -4.3318044394254684 -4.152159132063389 0.9812707453966141 -6.584094911813736 21.223398596048355 11.447901427745819 7.989347130060196 -7.2183045744895935 -0.677766390144825 8.723027184605598 -1.7114977911114693 6.013364419341087 6.7614056915044785 12.330259680747986 -5.000464059412479 9.231119379401207 -1.335844025015831 0.4633164033293724 13.099983930587769 -7.229780405759811 -5.405614748597145 -0.7337705790996552 1.0915692150592804 15.90041533112526 10.19348993897438 -3.553643636405468 4.30796530097723 6.966984272003174 -5.926035717129707 -3.8830581307411194 -8.643055111169815 0.44145841151475906 11.327258348464966 -18.508091121912003 -4.228610470890999 -54.711812138557434 32.263860404491425 -14.53418254852295 35.3325891494751 -26.516398787498474 -62.125335931777954 -9.621373414993286 -16.32759064435959 0.8291472494602203 10.008151307702065 -10.100485011935234 -3.225053586065769 -3.107868544757366 -1.6439688205718994 7.653541937470436 -1.9831542670726776 -9.760048985481262 -2.3149026185274124 -3.4250005334615707 10.544515997171402 6.5849290788173676 -6.227589771151543 -3.854389004409313 -9.84744742512703 -6.347081512212753 -0.9439709410071373 10.435600876808167 7.732533663511276 -1.688714437186718 2.465609237551689 -13.963185846805573 -1.2055708095431328 -12.308893203735352 -2.898472510278225 -1.0320590436458588 4.519371651113033 -4.510590098798275 5.14207798987627 5.019555687904358 7.355070412158966 6.1607953906059265 6.856433004140854 -24.460069835186005 -38.96886795759201 -30.67583441734314 -19.71222460269928 70.18829226493835 13.83536383509636 -8.715757057070732 -10.745467096567154 -11.928470134735107 1.415995303541422 1.469588354229927 11.778458207845688 40.964747965335846 -36.69306457042694 40.98160296678543 19.986689686775208 65.96960127353668 -19.5929092168808 15.046897530555725 -11.644169390201569 15.795192271471024
